<?xml version="1.0"?>
<svg width="640" height="480" xmlns="http://www.w3.org/2000/svg" xmlns:svg="http://www.w3.org/2000/svg">
 <!-- Created with SVG-edit - https://github.com/SVG-Edit/svgedit-->
 <g class="layer">
  <title>Layer 1</title>
  <line fill="none" id="svg_4" stroke="#000000" stroke-width="5" x1="207.5" x2="206.5" y1="120.5" y2="237.5"/>
  <line fill="none" id="svg_5" stroke="#000000" stroke-width="5" x1="339.5" x2="207.5" y1="120.5" y2="121.5"/>
  <line fill="none" id="svg_6" stroke="#000000" stroke-width="5" x1="333.5" x2="206.5" y1="237.5" y2="237.5"/>
  <line fill="none" id="svg_7" stroke="#000000" stroke-dasharray="null" stroke-linecap="null" stroke-linejoin="null" stroke-width="5" x1="334.5" x2="333.5" y1="118.5" y2="238.5"/>
  <line fill="none" id="svg_8" stroke="#000000" stroke-dasharray="null" stroke-linecap="null" stroke-linejoin="null" stroke-width="5" x1="206.5" x2="335.5" y1="120.5" y2="50.5"/>
  <line fill="none" id="svg_9" stroke="#000000" stroke-dasharray="null" stroke-linecap="null" stroke-linejoin="null" stroke-width="5" x1="334.5" x2="207.5" y1="235.5" y2="302.5"/>
  <line fill="none" id="svg_10" stroke="#000000" stroke-dasharray="null" stroke-linecap="null" stroke-linejoin="null" stroke-width="5" x1="333.5" x2="414.5" y1="118.5" y2="221.5"/>
  <line fill="none" id="svg_11" stroke="#000000" stroke-dasharray="null" stroke-linecap="null" stroke-linejoin="null" stroke-width="5" x1="205.5" x2="140.5" y1="237.5" y2="125.5"/>
  <line fill="none" id="svg_12" stroke="#000000" stroke-dasharray="null" stroke-linecap="null" stroke-linejoin="null" stroke-width="5" x1="232.5" x2="336.5" y1="118.5" y2="63.5"/>
  <line fill="none" id="svg_13" stroke="#000000" stroke-dasharray="null" stroke-linecap="null" stroke-linejoin="null" stroke-width="5" x1="401.5" x2="335.5" y1="229.5" y2="137.5"/>
  <line fill="none" id="svg_14" stroke="#000000" stroke-dasharray="null" stroke-linecap="null" stroke-linejoin="null" stroke-width="5" x1="202.5" x2="311.5" y1="289.5" y2="235.5"/>
  <line fill="none" id="svg_15" stroke="#000000" stroke-dasharray="null" stroke-linecap="null" stroke-linejoin="null" stroke-width="5" x1="204.5" x2="150.5" y1="214.5" y2="121.5"/>
  <line fill="none" id="svg_16" stroke="#000000" stroke-dasharray="null" stroke-linecap="null" stroke-linejoin="null" stroke-width="5" x1="334.5" x2="334.5" y1="49.5" y2="63.5"/>
  <line fill="none" id="svg_17" stroke="#000000" stroke-dasharray="null" stroke-linecap="null" stroke-linejoin="null" stroke-width="5" x1="398.5" x2="417.5" y1="226.5" y2="227.5"/>
  <line fill="none" id="svg_18" stroke="#000000" stroke-dasharray="null" stroke-linecap="null" stroke-linejoin="null" stroke-width="5" x1="150.5" x2="137.5" y1="121.5" y2="121.5"/>
  <line fill="none" id="svg_19" stroke="#000000" stroke-dasharray="null" stroke-linecap="null" stroke-linejoin="null" stroke-width="5" x1="335.5" x2="405.5" y1="62.5" y2="109.5"/>
  <line fill="none" id="svg_20" stroke="#000000" stroke-dasharray="null" stroke-linecap="null" stroke-linejoin="null" stroke-width="5" x1="401.5" x2="343.5" y1="228.5" y2="287.5"/>
  <line fill="none" id="svg_21" stroke="#000000" stroke-dasharray="null" stroke-linecap="null" stroke-linejoin="null" stroke-width="5" x1="336.5" x2="423.5" y1="48.5" y2="108.5"/>
  <line fill="none" id="svg_22" stroke="#000000" stroke-dasharray="null" stroke-linecap="null" stroke-linejoin="null" stroke-width="5" x1="417.5" x2="345.5" y1="229.5" y2="301.5"/>
  <line fill="none" id="svg_23" stroke="#000000" stroke-dasharray="null" stroke-linecap="null" stroke-linejoin="null" stroke-width="5" x1="400.5" x2="423.5" y1="109.5" y2="109.5"/>
  <line fill="none" id="svg_24" stroke="#000000" stroke-dasharray="null" stroke-linecap="null" stroke-linejoin="null" stroke-width="5" x1="410.5" x2="415.5" y1="212.5" y2="227.5"/>
  <line fill="none" id="svg_25" stroke="#000000" stroke-dasharray="null" stroke-linecap="null" stroke-linejoin="null" stroke-width="5" x1="149.5" x2="204.5" y1="119.5" y2="60.5"/>
  <line fill="none" id="svg_26" stroke="#000000" stroke-dasharray="null" stroke-linecap="null" stroke-linejoin="null" stroke-width="5" x1="345.5" x2="346.5" y1="296.5" y2="282.5"/>
  <line fill="none" id="svg_27" stroke="#000000" stroke-dasharray="null" stroke-linecap="null" stroke-linejoin="null" stroke-width="5" x1="202.5" x2="139.5" y1="285.5" y2="245.5"/>
  <line fill="none" id="svg_28" stroke="#000000" stroke-dasharray="null" stroke-linecap="null" stroke-linejoin="null" stroke-width="5" x1="208.5" x2="118.5" y1="303.5" y2="242.5"/>
  <line fill="none" id="svg_29" stroke="#000000" stroke-dasharray="null" stroke-linecap="null" stroke-linejoin="null" stroke-width="5" x1="137.5" x2="199.5" y1="118.5" y2="50.5"/>
  <line fill="none" id="svg_30" stroke="#000000" stroke-dasharray="null" stroke-linecap="null" stroke-linejoin="null" stroke-width="5" x1="141.5" x2="122.5" y1="245.5" y2="243.5"/>
  <line fill="none" id="svg_31" stroke="#000000" stroke-dasharray="null" stroke-linecap="null" stroke-linejoin="null" stroke-width="5" x1="203.5" x2="199.5" y1="62.5" y2="47.5"/>
  <line fill="none" id="svg_32" stroke="#000000" stroke-dasharray="null" stroke-linecap="null" stroke-linejoin="null" stroke-width="5" x1="205.5" x2="205.5" y1="297.5" y2="284.5"/>
  <line fill="none" id="svg_33" stroke="#000000" stroke-dasharray="null" stroke-linecap="null" stroke-linejoin="null" stroke-width="5" x1="268.5" x2="215.5" y1="122.5" y2="225.5"/>
  <line fill="none" id="svg_34" stroke="#000000" stroke-dasharray="null" stroke-linecap="null" stroke-linejoin="null" stroke-width="5" x1="326.5" x2="269.5" y1="227.5" y2="122.5"/>
  <line fill="none" id="svg_35" stroke="#000000" stroke-dasharray="null" stroke-linecap="null" stroke-linejoin="null" stroke-width="5" x1="452.5" x2="453.5" y1="159.5" y2="159.5"/>
  <line fill="none" id="svg_36" stroke="#000000" stroke-dasharray="null" stroke-linecap="null" stroke-linejoin="null" stroke-width="5" x1="215.5" x2="324.5" y1="225.5" y2="224.5"/>
  <path d="m240.5,184.5c0.886673,-1.084 1.674911,-1.315826 2.347336,-1.704498c0.934326,-0.540054 1.523376,-1.116547 2.305328,-1.595505c0.683563,-0.418701 1.537155,-1.099762 2.231339,-1.414658c0.889359,-0.403427 1.651016,-0.327835 2.595169,-0.785339c0.839325,-0.406708 1.720825,-0.5 2.620834,-0.5c0.899994,0 1.699997,0 2.535995,0c1.016678,0 1.711319,0 2.728012,0c0.935974,0 1.835999,0 2.735992,0c0.899994,0 1.699982,0 2.53598,0c1.021179,0 1.768524,0 2.762695,0c0.76532,0 1.715973,0 2.701324,0c0.899994,0 1.699982,0 2.53598,0c1.021179,0 1.768524,0 2.762695,0c0.76532,0 1.786591,-0.136093 2.553162,0.352661c0.704041,0.448868 1.399994,0.645081 2.295502,0.647339c0.919312,0.002304 1.752655,0 2.731323,0c0.773987,0 1.674011,0 2.537323,0c0.963165,0 1.884003,0 2.783997,0c0.901337,0 1.866669,0 2.700012,0c0.833344,0 1.69751,0.053513 2.5,0.5c0.797516,0.44371 1.374634,1.040695 2.020844,1.5c0.697083,0.495483 1.579163,0.878494 2.479156,1l0.799988,0l0.900024,0" fill="none" id="svg_37" stroke="#000000" stroke-dasharray="null" stroke-linecap="null" stroke-linejoin="null" stroke-width="5"/>
  <path d="m233.5,196.5c1.5,1.5 2.11084,2.325684 2.800003,2.714661c0.766327,0.432541 1.852692,0.278122 2.547333,0.285339c1.027496,0.010666 1.828186,0.32225 2.477997,0.850662c0.700424,0.569565 1.435425,0.998245 2.341339,1.31601c0.680817,0.238815 1.421295,0.662781 2.437836,1.12883c0.623764,0.285965 1.558075,0.572601 2.343658,0.647339c1.038651,0.098816 1.953674,-0.15683 2.849167,0.142487c0.784042,0.26207 1.310608,1.245529 2.00267,1.629333c0.824478,0.45726 1.800003,0.285339 2.699997,0.285339c0.899994,0 1.824585,-0.079346 2.666656,0.166672c0.692535,0.202332 1.428253,0.647751 2.428833,1.12883c0.742737,0.357117 1.661133,0.628769 2.37384,0.788498c1.048615,0.235001 1.543396,0.448486 2.347992,0.632004c1.210815,0.276169 2.021027,0.281738 2.925507,0.283997c0.957184,0.00238 1.910645,-0.181335 2.757172,0.166672c0.671082,0.275894 1.499817,0.822906 2.399994,0.833328c0.904449,0.010468 1.766663,0 2.600006,0c0.978485,0 1.798676,0 2.700012,0c0.899994,0 1.799988,0 2.699982,0c0.899994,0 1.801331,0 2.766663,0c0.658691,0 1.666687,0 2.528839,0c0.90451,0 1.804504,0 2.704498,0c0.899994,0 1.803802,0.082123 2.700012,-0.000168c0.911438,-0.083679 1.488037,-0.599396 2.299988,-0.974503c0.887756,-0.41011 1.599762,-1.025574 2.100006,-1.52533c0.699677,-0.699005 1.334381,-1.134369 2.200012,-1.552673c0.81842,-0.395493 1.031525,-1.232925 1.521484,-2.047165c0.43573,-0.724121 1.444824,-0.816193 2.178497,-1.336166c0.787079,-0.557846 1.300018,-1.206833 2.100006,-1.563995l0.799988,-0.357162l0.700012,-0.642838l0.563995,-0.600006" fill="none" id="svg_38" stroke="#000000" stroke-dasharray="null" stroke-linecap="null" stroke-linejoin="null" stroke-width="5"/>
  <path d="m258.5,178.5c1,1 1,1.757172 1,2.652664c0,0.863342 0.058502,1.863251 -0.352661,2.647339c-0.444702,0.848007 -0.790955,1.530533 -1.498016,2.099991c-0.788818,0.6353 -1.144806,1.299973 -1.149323,2.200012c-0.004486,0.899979 0,1.799988 0,2.699997c0,0.899994 0,1.800003 0,2.699997c0,0.757172 -0.118561,1.673203 0.085327,2.516006c0.214813,0.888 0.871948,1.680969 0.914673,2.584c0.042511,0.898987 0.085327,1.699997 0.520844,2.399994l0.679169,0.699997l0.599976,0.600006" fill="none" id="svg_39" stroke="#000000" stroke-dasharray="null" stroke-linecap="null" stroke-linejoin="null" stroke-width="5"/>
  <path d="m278.5,179.5c-0.085327,0.569336 -0.002258,1.351822 0,2.24733c0.002289,0.919342 -0.050537,1.753983 0.000153,2.731171c0.042694,0.823471 0.746796,1.558685 0.963837,2.421494c0.219757,0.87352 -0.117523,1.848465 0.202667,2.600006c0.332825,0.781204 0.822906,1.499817 0.833344,2.399994c0.010406,0.899948 0,1.800003 0,2.700012c0,0.899994 0,1.699997 0,2.599991c0,0.900009 0,1.800003 0,2.699997c0,0.900009 -0.001343,1.798676 -0.352661,2.547333l-0.647339,0.573502" fill="none" id="svg_40" stroke="#000000" stroke-dasharray="null" stroke-linecap="null" stroke-linejoin="null" stroke-width="5"/>
  <path d="m267.5,191.5c0,1.800003 -0.010681,2.700058 0,3.600006c0.010437,0.879349 0.610596,1.394653 1.520844,1.399994c0.800476,0.004684 1.673157,0.188217 2.592499,-0.001328c0.884003,-0.182251 0.886658,-1.198669 0.886658,-2.098846l0,-0.785156" fill="none" id="svg_41" stroke="#000000" stroke-dasharray="null" stroke-linecap="null" stroke-linejoin="null" stroke-width="5"/>
  <path d="m141.5,130.5c0,-1.699997 0,-2.599998 0,-3.5c0,-0.900002 0,-1.800003 0,-2.699997c0,-0.900002 0.02536,-1.800407 0,-2.600006c-0.028595,-0.901352 -0.5,-1.699997 -0.947327,-2.5l-0.33667,-0.899994l-0.432007,-0.600006l-0.33667,-0.899994" fill="none" id="svg_42" stroke="#000000" stroke-dasharray="null" stroke-linecap="null" stroke-linejoin="null" stroke-width="5"/>
  <path d="m344.5,298.5c0.995514,-1.700012 1,-2.600006 1,-3.5l0,-0.899994l0,-0.899994l0,-0.900024" fill="none" id="svg_43" stroke="#000000" stroke-dasharray="null" stroke-linecap="null" stroke-linejoin="null" stroke-width="5"/>
  <path d="m206.5,301.5c1.479172,-1.5 1.971405,-2.298615 2,-3.200012c0.028534,-0.899353 0,-1.825317 -0.221497,-2.67865l-0.778503,-0.287994l-0.642838,-0.537842l-0.382492,-0.859497" fill="none" id="svg_44" stroke="#000000" stroke-dasharray="null" stroke-linecap="null" stroke-linejoin="null" stroke-width="5"/>
 </g>
</svg>